<svg width="164" height="32" viewBox="0 0 164 32" fill="none" xmlns="http://www.w3.org/2000/svg">
<g clip-path="url(#clip0_112_3794)">
<path d="M5.49449 31.5255L28.1714 19.0368C30.6177 17.6892 30.6177 14.3298 28.1714 12.9822L5.49449 0.474498C3.04818 -0.87307 0 0.816136 0 3.51127V13.6655H4.89262V8.99644H9.78525V13.6655H14.6779V18.3345H9.78525V23.0036H4.89262V18.3345H0V28.4887C0 31.1839 3.04818 32.8731 5.49449 31.5255Z" fill="#007AFF"/>
<path d="M42.3639 3.18861H57.4107V6.73784H46.8294V20.4792C51.489 20.4413 55.3138 20.1945 59.5852 19.4733L60.0706 23.1554C55.0809 23.9905 50.7124 24.1044 45.0626 24.0854H42.3445V3.18861H42.3639ZM66.3805 11.9383H71.0984V15.5255H66.3805V31.7153H61.8762V0.284698H66.3805V11.9383Z" fill="#007AFF"/>
<path d="M72 15.0262H101.259V18.5375H72V15.0262ZM98.2882 7.1306C98.2882 10.9455 93.7644 13.2041 86.6196 13.1852C79.5137 13.1852 74.9123 10.9266 74.9123 7.1306C74.9123 3.33463 79.5137 0.981134 86.6196 1.00011C93.7644 1.00011 98.2687 3.31565 98.2882 7.1306ZM75.3782 20.7391H97.7639V31.4248H75.3782V20.7391ZM86.6196 9.78778C91.0463 9.78778 93.6285 8.89572 93.6285 7.1306C93.6285 5.36548 91.0463 4.41648 86.6196 4.41648C82.193 4.41648 79.5719 5.32752 79.6108 7.1306C79.5719 8.89572 82.1347 9.78778 86.6196 9.78778ZM93.3567 27.9135V24.2314H79.8243V27.9135H93.3567Z" fill="#007AFF"/>
<path d="M123.616 15.6204L121.325 19.0747C117.734 17.9549 115.21 15.6963 113.773 12.8683C112.317 15.962 109.696 18.4294 105.929 19.6631L103.599 16.2088C108.939 14.5386 111.385 10.4579 111.385 6.49111V6.03559H104.803V2.52432H122.432V6.03559H115.986V6.49111C115.986 10.2301 118.374 14.0451 123.636 15.6204H123.616ZM108.822 20.9158H113.365V27.5587H131.169V31.07H108.822V20.9158ZM125.81 0.322662H130.315V22.9846H125.81V0.322662Z" fill="#007AFF"/>
<path d="M164 28.1661H134.644V24.5409H142.158V19.758H138.042V9.22421H156.195V5.8458H138.003V2.33453H160.622V12.7355H142.546V16.2088H161.36V19.758H156.816V24.5409H164V28.1661ZM152.409 24.5409V19.758H146.526V24.5409H152.409Z" fill="#007AFF"/>
</g>
<defs>
<clipPath id="clip0_112_3794">
<rect width="164" height="32" fill="white"/>
</clipPath>
</defs>
</svg>
